<svg width="24" height="31" viewBox="0 0 24 31" fill="none" xmlns="http://www.w3.org/2000/svg">
<path d="M13.4229 30.2347C14.5767 30.1194 15.7113 29.8886 16.769 29.5232V26.1479C15.7113 26.5709 14.5959 26.8402 13.4229 26.9748V30.2347Z" fill="#174BE6"/>
<path d="M16.7886 25.5V19.8462V10.2115C15.8848 9.32692 14.731 8.69231 13.4425 8.42308V13.7885H10.5771V12.5V0C9.42326 0.115385 8.28865 0.346154 7.23096 0.711538V12.4808V20C8.1348 20.8846 9.28865 21.5192 10.5771 21.8077V16.9038H13.4233V21.8077V26.4423C14.6156 26.3077 15.731 25.9808 16.7886 25.5Z" fill="#174BE6"/>
<path d="M12.0385 3.0961V5.99995C17.0577 6.01918 21.1154 10.0769 21.1154 15.0961C21.1154 20.1153 17.0385 24.1923 12.0192 24.1923C7 24.1923 2.92308 20.1153 2.92308 15.0961C2.92308 12.5576 3.96154 10.2692 5.61538 8.63456V4.96148C2.23077 7.07687 0 10.8269 0 15.1153C0 21.7307 5.38461 27.1153 12 27.1153C18.6154 27.1153 24 21.7499 24 15.1153C24 8.48071 18.6538 3.11533 12.0385 3.0961Z" fill="#174BE6"/>
</svg>
